<mxfile host="app.diagrams.net" modified="2024-04-30T18:55:00.063Z" agent="Mozilla/5.0 (Windows NT 10.0; Win64; x64) AppleWebKit/537.36 (KHTML, like Gecko) Chrome/124.0.0.0 Safari/537.36" etag="6CiPMfdn3-109nAnlSWc" version="24.3.1" type="github">
  <diagram name="Página-1" id="dHpCA66BBc9U6__JTMh9">
    <mxGraphModel dx="1816" dy="1697" grid="1" gridSize="10" guides="1" tooltips="1" connect="1" arrows="1" fold="1" page="1" pageScale="1" pageWidth="827" pageHeight="1169" math="0" shadow="0">
      <root>
        <mxCell id="0" />
        <mxCell id="1" parent="0" />
        <mxCell id="leOEBqHJ9ZsSow2MIpuy-2" value="" style="rounded=0;whiteSpace=wrap;html=1;" parent="1" vertex="1">
          <mxGeometry x="130" y="-125" width="470" height="595" as="geometry" />
        </mxCell>
        <mxCell id="leOEBqHJ9ZsSow2MIpuy-4" value="&lt;font style=&quot;font-size: 19px;&quot;&gt;&lt;b&gt;Sistema de administración de consorcio&lt;/b&gt;&lt;/font&gt;" style="text;html=1;align=center;verticalAlign=middle;whiteSpace=wrap;rounded=0;" parent="1" vertex="1">
          <mxGeometry x="130" y="-140" width="470" height="60" as="geometry" />
        </mxCell>
        <mxCell id="leOEBqHJ9ZsSow2MIpuy-6" value="Administración" style="shape=umlActor;verticalLabelPosition=bottom;verticalAlign=top;html=1;outlineConnect=0;" parent="1" vertex="1">
          <mxGeometry x="10" y="70" width="30" height="60" as="geometry" />
        </mxCell>
        <mxCell id="leOEBqHJ9ZsSow2MIpuy-7" value="" style="ellipse;whiteSpace=wrap;html=1;" parent="1" vertex="1">
          <mxGeometry x="170" y="-35" width="120" height="40" as="geometry" />
        </mxCell>
        <mxCell id="leOEBqHJ9ZsSow2MIpuy-8" value="&lt;font style=&quot;font-size: 9px;&quot;&gt;Realizar liquidación de expensas&lt;/font&gt;" style="text;html=1;align=center;verticalAlign=middle;whiteSpace=wrap;rounded=0;" parent="1" vertex="1">
          <mxGeometry x="165" y="-30" width="120" height="30" as="geometry" />
        </mxCell>
        <mxCell id="leOEBqHJ9ZsSow2MIpuy-9" value="" style="ellipse;whiteSpace=wrap;html=1;" parent="1" vertex="1">
          <mxGeometry x="324" y="34.38" width="90" height="46.25" as="geometry" />
        </mxCell>
        <mxCell id="leOEBqHJ9ZsSow2MIpuy-10" value="&lt;font style=&quot;font-size: 9px;&quot;&gt;Recargos del 10% por atraso&lt;br&gt;&lt;/font&gt;" style="text;html=1;align=center;verticalAlign=middle;whiteSpace=wrap;rounded=0;" parent="1" vertex="1">
          <mxGeometry x="329" y="38.75" width="85" height="37.5" as="geometry" />
        </mxCell>
        <mxCell id="leOEBqHJ9ZsSow2MIpuy-13" value="" style="ellipse;whiteSpace=wrap;html=1;" parent="1" vertex="1">
          <mxGeometry x="165" y="85" width="110" height="40" as="geometry" />
        </mxCell>
        <mxCell id="leOEBqHJ9ZsSow2MIpuy-14" value="&lt;font style=&quot;font-size: 8px;&quot;&gt;Transferir pedido de reparación a compañía&lt;br style=&quot;font-size: 8px;&quot;&gt;&lt;/font&gt;" style="text;html=1;align=center;verticalAlign=middle;whiteSpace=wrap;rounded=0;fontSize=8;" parent="1" vertex="1">
          <mxGeometry x="172.5" y="90" width="95" height="30" as="geometry" />
        </mxCell>
        <mxCell id="leOEBqHJ9ZsSow2MIpuy-15" value="" style="endArrow=none;html=1;rounded=0;entryX=0;entryY=0.75;entryDx=0;entryDy=0;" parent="1" target="leOEBqHJ9ZsSow2MIpuy-8" edge="1">
          <mxGeometry width="50" height="50" relative="1" as="geometry">
            <mxPoint x="40" y="100" as="sourcePoint" />
            <mxPoint x="90" y="35" as="targetPoint" />
          </mxGeometry>
        </mxCell>
        <mxCell id="leOEBqHJ9ZsSow2MIpuy-18" value="" style="endArrow=none;html=1;rounded=0;entryX=-0.026;entryY=0.376;entryDx=0;entryDy=0;entryPerimeter=0;" parent="1" target="leOEBqHJ9ZsSow2MIpuy-14" edge="1">
          <mxGeometry width="50" height="50" relative="1" as="geometry">
            <mxPoint x="40" y="100" as="sourcePoint" />
            <mxPoint x="200" y="132" as="targetPoint" />
          </mxGeometry>
        </mxCell>
        <mxCell id="leOEBqHJ9ZsSow2MIpuy-19" value="&lt;div&gt;Propietario&lt;/div&gt;" style="shape=umlActor;verticalLabelPosition=bottom;verticalAlign=top;html=1;outlineConnect=0;" parent="1" vertex="1">
          <mxGeometry x="690" y="70" width="30" height="60" as="geometry" />
        </mxCell>
        <mxCell id="leOEBqHJ9ZsSow2MIpuy-22" value="Compañía" style="shape=umlActor;verticalLabelPosition=bottom;verticalAlign=top;html=1;outlineConnect=0;" parent="1" vertex="1">
          <mxGeometry x="10" y="300" width="30" height="60" as="geometry" />
        </mxCell>
        <mxCell id="leOEBqHJ9ZsSow2MIpuy-23" value="Banco" style="shape=umlActor;verticalLabelPosition=bottom;verticalAlign=top;html=1;outlineConnect=0;" parent="1" vertex="1">
          <mxGeometry x="680" y="270" width="30" height="60" as="geometry" />
        </mxCell>
        <mxCell id="leOEBqHJ9ZsSow2MIpuy-39" value="" style="group" parent="1" vertex="1" connectable="0">
          <mxGeometry x="470" y="37.5" width="80" height="40" as="geometry" />
        </mxCell>
        <mxCell id="leOEBqHJ9ZsSow2MIpuy-35" value="" style="ellipse;whiteSpace=wrap;html=1;" parent="leOEBqHJ9ZsSow2MIpuy-39" vertex="1">
          <mxGeometry width="80" height="40" as="geometry" />
        </mxCell>
        <mxCell id="leOEBqHJ9ZsSow2MIpuy-36" value="&lt;font style=&quot;font-size: 9px;&quot;&gt;Abonar expensas&lt;br&gt;&lt;/font&gt;" style="text;html=1;align=center;verticalAlign=middle;whiteSpace=wrap;rounded=0;" parent="leOEBqHJ9ZsSow2MIpuy-39" vertex="1">
          <mxGeometry y="5" width="80" height="30" as="geometry" />
        </mxCell>
        <mxCell id="leOEBqHJ9ZsSow2MIpuy-40" value="" style="group" parent="1" vertex="1" connectable="0">
          <mxGeometry x="414" y="115" width="120" height="40" as="geometry" />
        </mxCell>
        <mxCell id="leOEBqHJ9ZsSow2MIpuy-37" value="" style="ellipse;whiteSpace=wrap;html=1;" parent="leOEBqHJ9ZsSow2MIpuy-40" vertex="1">
          <mxGeometry width="120" height="40" as="geometry" />
        </mxCell>
        <mxCell id="leOEBqHJ9ZsSow2MIpuy-38" value="&lt;font style=&quot;font-size: 9px;&quot;&gt;Solicitar reparación en el edificio&lt;font style=&quot;font-size: 9px;&quot;&gt;&lt;br&gt;&lt;/font&gt;&lt;/font&gt;" style="text;html=1;align=center;verticalAlign=middle;whiteSpace=wrap;rounded=0;" parent="leOEBqHJ9ZsSow2MIpuy-40" vertex="1">
          <mxGeometry x="10" y="7.5" width="100" height="25" as="geometry" />
        </mxCell>
        <mxCell id="leOEBqHJ9ZsSow2MIpuy-41" value="" style="endArrow=none;html=1;rounded=0;entryX=0;entryY=0.3333333333333333;entryDx=0;entryDy=0;entryPerimeter=0;exitX=1;exitY=0.5;exitDx=0;exitDy=0;" parent="1" source="leOEBqHJ9ZsSow2MIpuy-36" target="leOEBqHJ9ZsSow2MIpuy-19" edge="1">
          <mxGeometry width="50" height="50" relative="1" as="geometry">
            <mxPoint x="460" y="150" as="sourcePoint" />
            <mxPoint x="510" y="100" as="targetPoint" />
          </mxGeometry>
        </mxCell>
        <mxCell id="leOEBqHJ9ZsSow2MIpuy-42" value="" style="endArrow=none;html=1;rounded=0;entryX=0.5;entryY=0.5;entryDx=0;entryDy=0;entryPerimeter=0;exitX=1;exitY=0.5;exitDx=0;exitDy=0;" parent="1" source="leOEBqHJ9ZsSow2MIpuy-37" target="leOEBqHJ9ZsSow2MIpuy-19" edge="1">
          <mxGeometry width="50" height="50" relative="1" as="geometry">
            <mxPoint x="544" y="70" as="sourcePoint" />
            <mxPoint x="700" y="100" as="targetPoint" />
          </mxGeometry>
        </mxCell>
        <mxCell id="bwaJggvG7derBMp-TC6a-1" value="" style="endArrow=none;html=1;rounded=0;entryX=0;entryY=0.5;entryDx=0;entryDy=0;" parent="1" source="leOEBqHJ9ZsSow2MIpuy-22" target="bwaJggvG7derBMp-TC6a-4" edge="1">
          <mxGeometry width="50" height="50" relative="1" as="geometry">
            <mxPoint x="25" y="380" as="sourcePoint" />
            <mxPoint x="90" y="300" as="targetPoint" />
          </mxGeometry>
        </mxCell>
        <mxCell id="bwaJggvG7derBMp-TC6a-2" value="" style="group" parent="1" vertex="1" connectable="0">
          <mxGeometry x="170" y="340" width="110" height="40" as="geometry" />
        </mxCell>
        <mxCell id="bwaJggvG7derBMp-TC6a-3" value="" style="ellipse;whiteSpace=wrap;html=1;" parent="bwaJggvG7derBMp-TC6a-2" vertex="1">
          <mxGeometry width="110" height="40" as="geometry" />
        </mxCell>
        <mxCell id="bwaJggvG7derBMp-TC6a-4" value="&lt;font style=&quot;font-size: 9px;&quot;&gt;Mantenimiento general de edificios&lt;/font&gt;" style="text;html=1;align=center;verticalAlign=middle;whiteSpace=wrap;rounded=0;" parent="bwaJggvG7derBMp-TC6a-2" vertex="1">
          <mxGeometry x="5" y="5" width="100" height="30" as="geometry" />
        </mxCell>
        <mxCell id="bwaJggvG7derBMp-TC6a-5" value="" style="group" parent="1" vertex="1" connectable="0">
          <mxGeometry x="175" y="270" width="105" height="40" as="geometry" />
        </mxCell>
        <mxCell id="bwaJggvG7derBMp-TC6a-6" value="" style="ellipse;whiteSpace=wrap;html=1;" parent="bwaJggvG7derBMp-TC6a-5" vertex="1">
          <mxGeometry width="105" height="40" as="geometry" />
        </mxCell>
        <mxCell id="bwaJggvG7derBMp-TC6a-7" value="&lt;font style=&quot;font-size: 9px;&quot;&gt;Informar monto a la administración&lt;/font&gt;" style="text;html=1;align=center;verticalAlign=middle;whiteSpace=wrap;rounded=0;" parent="bwaJggvG7derBMp-TC6a-5" vertex="1">
          <mxGeometry x="7.5" y="5" width="90" height="30" as="geometry" />
        </mxCell>
        <mxCell id="bwaJggvG7derBMp-TC6a-8" value="" style="endArrow=none;html=1;rounded=0;exitX=0.5;exitY=0.5;exitDx=0;exitDy=0;exitPerimeter=0;entryX=0.012;entryY=0.614;entryDx=0;entryDy=0;entryPerimeter=0;" parent="1" source="leOEBqHJ9ZsSow2MIpuy-22" target="bwaJggvG7derBMp-TC6a-6" edge="1">
          <mxGeometry width="50" height="50" relative="1" as="geometry">
            <mxPoint x="42" y="366" as="sourcePoint" />
            <mxPoint x="160" y="310" as="targetPoint" />
          </mxGeometry>
        </mxCell>
        <mxCell id="bwaJggvG7derBMp-TC6a-14" value="" style="group" parent="1" vertex="1" connectable="0">
          <mxGeometry x="440" y="280" width="120" height="40" as="geometry" />
        </mxCell>
        <mxCell id="bwaJggvG7derBMp-TC6a-15" value="" style="ellipse;whiteSpace=wrap;html=1;" parent="bwaJggvG7derBMp-TC6a-14" vertex="1">
          <mxGeometry width="120" height="40" as="geometry" />
        </mxCell>
        <mxCell id="bwaJggvG7derBMp-TC6a-16" value="&lt;font style=&quot;font-size: 9px;&quot;&gt;Listado con pagos de impuestos debitados&lt;/font&gt;" style="text;html=1;align=center;verticalAlign=middle;whiteSpace=wrap;rounded=0;" parent="bwaJggvG7derBMp-TC6a-14" vertex="1">
          <mxGeometry x="10" y="7.5" width="100" height="25" as="geometry" />
        </mxCell>
        <mxCell id="mhS0V_GhBwwC2oj6yAqv-5" value="" style="group" vertex="1" connectable="0" parent="1">
          <mxGeometry x="380" y="-30" width="110" height="40" as="geometry" />
        </mxCell>
        <mxCell id="mhS0V_GhBwwC2oj6yAqv-6" value="" style="ellipse;whiteSpace=wrap;html=1;" vertex="1" parent="mhS0V_GhBwwC2oj6yAqv-5">
          <mxGeometry width="110.00000000000001" height="40" as="geometry" />
        </mxCell>
        <mxCell id="mhS0V_GhBwwC2oj6yAqv-7" value="&lt;font style=&quot;font-size: 9px;&quot;&gt;Gasto de reparación&lt;br&gt;&lt;/font&gt;" style="text;html=1;align=center;verticalAlign=middle;whiteSpace=wrap;rounded=0;" vertex="1" parent="mhS0V_GhBwwC2oj6yAqv-5">
          <mxGeometry y="5" width="110.00000000000001" height="30" as="geometry" />
        </mxCell>
        <mxCell id="mhS0V_GhBwwC2oj6yAqv-16" value="" style="group" vertex="1" connectable="0" parent="1">
          <mxGeometry x="315" y="-30" width="55" height="10" as="geometry" />
        </mxCell>
        <mxCell id="mhS0V_GhBwwC2oj6yAqv-12" value="" style="endArrow=none;dashed=1;html=1;dashPattern=1 3;strokeWidth=1;rounded=0;exitX=0.99;exitY=0.39;exitDx=0;exitDy=0;exitPerimeter=0;entryX=0;entryY=0.25;entryDx=0;entryDy=0;spacing=1;jumpSize=3;" edge="1" parent="mhS0V_GhBwwC2oj6yAqv-16" source="leOEBqHJ9ZsSow2MIpuy-8" target="mhS0V_GhBwwC2oj6yAqv-7">
          <mxGeometry width="50" height="50" relative="1" as="geometry">
            <mxPoint x="-5" y="30" as="sourcePoint" />
            <mxPoint x="45" y="-20" as="targetPoint" />
          </mxGeometry>
        </mxCell>
        <mxCell id="mhS0V_GhBwwC2oj6yAqv-13" value="&lt;font style=&quot;font-size: 7px;&quot;&gt;extends&lt;/font&gt;" style="text;html=1;align=center;verticalAlign=middle;whiteSpace=wrap;rounded=0;" vertex="1" parent="mhS0V_GhBwwC2oj6yAqv-16">
          <mxGeometry width="55" height="10" as="geometry" />
        </mxCell>
        <mxCell id="mhS0V_GhBwwC2oj6yAqv-28" value="" style="endArrow=none;html=1;rounded=0;exitX=1;exitY=0.5;exitDx=0;exitDy=0;" edge="1" parent="1" source="bwaJggvG7derBMp-TC6a-15" target="leOEBqHJ9ZsSow2MIpuy-23">
          <mxGeometry width="50" height="50" relative="1" as="geometry">
            <mxPoint x="580" y="400" as="sourcePoint" />
            <mxPoint x="715" y="480" as="targetPoint" />
          </mxGeometry>
        </mxCell>
        <mxCell id="mhS0V_GhBwwC2oj6yAqv-29" value="" style="group" vertex="1" connectable="0" parent="1">
          <mxGeometry x="407.5" y="45" width="55" height="10" as="geometry" />
        </mxCell>
        <mxCell id="mhS0V_GhBwwC2oj6yAqv-31" value="&lt;font style=&quot;font-size: 7px;&quot;&gt;extends&lt;/font&gt;" style="text;html=1;align=center;verticalAlign=middle;whiteSpace=wrap;rounded=0;" vertex="1" parent="mhS0V_GhBwwC2oj6yAqv-29">
          <mxGeometry width="55" height="10" as="geometry" />
        </mxCell>
        <mxCell id="mhS0V_GhBwwC2oj6yAqv-30" value="" style="endArrow=none;dashed=1;html=1;dashPattern=1 3;strokeWidth=1;rounded=0;exitX=1;exitY=0.5;exitDx=0;exitDy=0;entryX=0;entryY=0.5;entryDx=0;entryDy=0;spacing=1;jumpSize=3;" edge="1" parent="1" source="leOEBqHJ9ZsSow2MIpuy-10" target="leOEBqHJ9ZsSow2MIpuy-36">
          <mxGeometry width="50" height="50" relative="1" as="geometry">
            <mxPoint x="365" y="75" as="sourcePoint" />
            <mxPoint x="415" y="25" as="targetPoint" />
          </mxGeometry>
        </mxCell>
        <mxCell id="mhS0V_GhBwwC2oj6yAqv-41" value="" style="endArrow=none;html=1;rounded=0;entryX=0.069;entryY=0.304;entryDx=0;entryDy=0;entryPerimeter=0;" edge="1" parent="1" source="leOEBqHJ9ZsSow2MIpuy-6" target="mhS0V_GhBwwC2oj6yAqv-40">
          <mxGeometry width="50" height="50" relative="1" as="geometry">
            <mxPoint x="47" y="130" as="sourcePoint" />
            <mxPoint x="190" y="166" as="targetPoint" />
          </mxGeometry>
        </mxCell>
        <mxCell id="mhS0V_GhBwwC2oj6yAqv-40" value="" style="ellipse;whiteSpace=wrap;html=1;verticalAlign=middle;fillColor=none;" vertex="1" parent="1">
          <mxGeometry x="180" y="155" width="87.5" height="40" as="geometry" />
        </mxCell>
        <mxCell id="mhS0V_GhBwwC2oj6yAqv-38" value="&lt;font style=&quot;font-size: 8px;&quot;&gt;Registrar monto de reparación&lt;br style=&quot;font-size: 8px;&quot;&gt;&lt;/font&gt;" style="text;html=1;align=center;verticalAlign=middle;whiteSpace=wrap;rounded=0;fontSize=8;" vertex="1" parent="1">
          <mxGeometry x="177.5" y="160" width="95" height="30" as="geometry" />
        </mxCell>
        <mxCell id="mhS0V_GhBwwC2oj6yAqv-42" value="" style="endArrow=none;dashed=1;html=1;dashPattern=1 3;strokeWidth=1;rounded=0;entryX=0.5;entryY=1;entryDx=0;entryDy=0;exitX=0.477;exitY=-0.148;exitDx=0;exitDy=0;exitPerimeter=0;" edge="1" parent="1" source="bwaJggvG7derBMp-TC6a-7" target="mhS0V_GhBwwC2oj6yAqv-40">
          <mxGeometry width="50" height="50" relative="1" as="geometry">
            <mxPoint x="380" y="230" as="sourcePoint" />
            <mxPoint x="430" y="180" as="targetPoint" />
          </mxGeometry>
        </mxCell>
        <mxCell id="mhS0V_GhBwwC2oj6yAqv-43" value="" style="group" vertex="1" connectable="0" parent="1">
          <mxGeometry x="220" y="220" width="55" height="10" as="geometry" />
        </mxCell>
        <mxCell id="mhS0V_GhBwwC2oj6yAqv-44" value="&lt;font style=&quot;font-size: 7px;&quot;&gt;include&lt;/font&gt;" style="text;html=1;align=center;verticalAlign=middle;whiteSpace=wrap;rounded=0;" vertex="1" parent="mhS0V_GhBwwC2oj6yAqv-43">
          <mxGeometry width="55" height="10" as="geometry" />
        </mxCell>
      </root>
    </mxGraphModel>
  </diagram>
</mxfile>
